Coordinates
version=1
nRows=17
nColumns=40
inDegrees=yes

Units are S.I. units (second, meters, Newtons, ...)
Angles are in degrees.

endheader
time	pelvis_tilt	pelvis_list	pelvis_rotation	pelvis_tx	pelvis_ty	pelvis_tz	hip_flexion_r	hip_adduction_r	hip_rotation_r	knee_angle_r	knee_angle_r_beta	ankle_angle_r	subtalar_angle_r	mtp_angle_r	hip_flexion_l	hip_adduction_l	hip_rotation_l	knee_angle_l	knee_angle_l_beta	ankle_angle_l	subtalar_angle_l	mtp_angle_l	lumbar_extension	lumbar_bending	lumbar_rotation	arm_flex_r	arm_add_r	arm_rot_r	elbow_flex_r	pro_sup_r	wrist_flex_r	wrist_dev_r	arm_flex_l	arm_add_l	arm_rot_l	elbow_flex_l	pro_sup_l	wrist_flex_l	wrist_dev_l
     27.34314286	     -7.81798725	     -5.23849143	     -3.61559087	      0.80056532	      0.92714666	      0.44117508	     37.67652763	     -3.10576619	     -7.68878844	     60.02185462	     60.02185462	      2.02320342	    -18.99323603	     10.26613900	     16.18566254	     -5.14422685	     -2.24965248	     23.73364687	     23.73364687	     17.03041011	    -14.08093263	      6.38990262	    -12.31275895	      7.34496685	      0.97990638	      0.84032752	    -14.34667534	    -15.87937762	     25.85488962	     47.34565949	      0.00000000	      0.00000000	     -3.29183316	    -16.21801005	     -4.61619154	     68.10954714	     46.74282974	      0.00000000	      0.00000000
     27.35628571	     -7.93157460	     -5.44581464	     -4.06040994	      0.79927372	      0.92765516	      0.44241615	     38.17008647	     -2.25359854	     -7.74524325	     56.69667681	     56.69667681	      2.71972614	    -18.70615541	     10.11647582	     15.61466567	     -5.48444612	     -2.54863415	     23.29767970	     23.29767970	     17.14714257	    -14.09094815	      6.45092564	    -12.31069624	      7.59929211	      0.71203346	      0.12780486	    -14.36107475	    -16.11593576	     25.54022987	     47.36699476	      0.00000000	      0.00000000	     -3.29805030	    -16.19375066	     -4.61123897	     68.30360183	     46.74877201	      0.00000000	      0.00000000
     27.36942857	     -8.03965597	     -5.62891402	     -4.49886465	      0.79805846	      0.92804617	      0.44385921	     38.45013267	     -1.38998309	     -7.73647751	     52.94657880	     52.94657880	      3.22525365	    -18.11550817	      9.79975614	     15.01637191	     -5.81256107	     -2.88658956	     22.85039657	     22.85039657	     17.34039089	    -14.03808355	      6.45523681	    -12.30875809	      7.79422097	      0.58379373	     -0.56637242	    -14.31892764	    -16.34318986	     25.16996475	     47.39073840	      0.00000000	      0.00000000	     -3.22930964	    -16.15873836	     -4.55301974	     68.71008946	     46.75429864	      0.00000000	      0.00000000
     27.38257143	     -7.98877167	     -5.73474344	     -4.87796396	      0.79700201	      0.92839299	      0.44520279	     38.06674632	     -0.75478639	     -7.94112674	     48.29621123	     48.29621123	      1.39328315	    -17.84647212	      2.50445556	     14.27485574	     -6.07312889	     -3.42009363	     22.46667315	     22.46667315	     17.52849043	    -13.68572423	      6.14332883	    -12.51545696	      7.88894588	      0.59381431	     -0.73123656	    -14.05068220	    -19.32569097	     23.69534453	     47.65556959	      0.00000000	      0.00000000	     -3.27351974	    -16.49607805	     -3.43401310	     70.15420581	     46.76813567	      0.00000000	      0.00000000
     27.39571429	     -8.12940835	     -5.82112469	     -5.19916382	      0.79587145	      0.92832511	      0.44661987	     37.98837871	     -0.06477407	     -7.94716411	     43.96755774	     43.96755774	      1.87169889	    -16.41729155	      2.61118240	     13.77152392	     -6.26632223	     -3.68359482	     22.09840970	     22.09840970	     17.70051051	    -13.66556614	      6.12006031	    -12.44296753	      8.01797086	      0.39508545	     -1.28571897	    -13.94992326	    -19.50391292	     23.49793499	     47.66893230	      0.00000000	      0.00000000	     -3.10881767	    -16.39311462	     -3.41879395	     70.41245999	     46.77575568	      0.00000000	      0.00000000
     27.40885714	     -8.17594514	     -5.89544034	     -5.46670608	      0.79492765	      0.92818132	      0.44805255	     37.56678897	      0.53569576	     -8.03533303	     39.41787637	     39.41787637	      2.17260076	    -14.58249353	      2.58121474	     13.16446324	     -6.43142086	     -3.93332641	     21.74684691	     21.74684691	     17.94895281	    -13.58461104	      6.03839842	    -12.45566112	      8.14702437	      0.25034827	     -1.76278045	    -13.84242795	    -19.70486917	     23.26562485	     47.68749474	      0.00000000	      0.00000000	     -2.89593760	    -16.28780507	     -3.30066422	     70.82137502	     46.78168837	      0.00000000	      0.00000000
     27.42200000	     -8.14416605	     -5.86221150	     -5.65497858	      0.79415837	      0.92782645	      0.44939970	     36.90548348	      0.89169408	     -8.32927440	     34.86715833	     34.86715833	      2.32344650	    -12.30892963	      2.52478104	     12.52419268	     -6.47343729	     -4.24582756	     21.48545427	     21.48545427	     18.23697858	    -13.43036834	      5.85682871	    -12.52750399	      8.13080183	      0.08682398	     -2.20864317	    -13.73323577	    -19.94277758	     23.05011766	     47.70844511	      0.00000000	      0.00000000	     -2.66935009	    -16.19756968	     -3.07181810	     71.30417351	     46.78238862	      0.00000000	      0.00000000
     27.43514286	     -8.03851492	     -5.74799909	     -5.77182113	      0.79370271	      0.92728420	      0.45067530	     36.01363343	      1.01169173	     -8.92452805	     30.46811140	     30.46811140	      2.36801010	     -9.28379559	      1.97392076	     11.77590577	     -6.43025381	     -4.62895310	     21.17510283	     21.17510283	     18.50936546	    -12.99626895	      5.42626976	    -12.62762141	      8.09600965	      0.09274379	     -2.62778143	    -13.51910972	    -20.61445542	     22.82618436	     47.75882396	      0.00000000	      0.00000000	     -2.41530940	    -16.25612091	     -2.43385209	     72.03725496	     46.77442727	      0.00000000	      0.00000000
     27.44828571	     -7.98592505	     -5.69357507	     -5.82231091	      0.79339521	      0.92644575	      0.45208752	     35.09695644	      1.28043819	     -9.30502040	     26.36509331	     26.36509331	      2.32096113	     -7.01253564	      2.53237133	     11.14375177	     -6.41800837	     -4.75788235	     20.97932688	     20.97932688	     18.81789111	    -12.93706773	      5.14698711	    -12.61306664	      8.10676496	     -0.08799332	     -2.92985746	    -13.32605153	    -20.91163059	     22.73738783	     47.77827626	      0.00000000	      0.00000000	     -2.20858343	    -16.18077604	     -2.10838374	     72.40921120	     46.77064226	      0.00000000	      0.00000000
     27.46142857	     -7.88609338	     -5.50676406	     -5.83568001	      0.79335059	      0.92537738	      0.45343271	     34.21038642	      1.29836992	     -9.81245775	     22.96777004	     22.96777004	      2.36100961	     -4.53456367	      3.33110924	     10.45652244	     -6.25204026	     -4.92035341	     20.77662335	     20.77662335	     19.13580928	    -12.77213264	      4.78767244	    -12.57513233	      8.04068912	     -0.17637519	     -3.22374491	    -13.07547879	    -21.21403786	     22.67513081	     47.79595296	      0.00000000	      0.00000000	     -1.97232559	    -16.10617273	     -1.75100510	     72.81411642	     46.76687767	      0.00000000	      0.00000000
     27.47457143	     -7.79874062	     -5.29793942	     -5.81895878	      0.79349686	      0.92414265	      0.45489082	     33.42150591	      1.23753967	    -10.36072464	     20.34245519	     20.34245519	      2.40746585	     -2.34371593	      4.29364931	      9.78365892	     -6.06617808	     -5.05319784	     20.58931759	     20.58931759	     19.47278124	    -12.64661310	      4.41882860	    -12.47697778	      7.92051759	     -0.22749243	     -3.46731168	    -12.80489365	    -21.48547160	     22.65443272	     47.80931889	      0.00000000	      0.00000000	     -1.75732762	    -15.99984298	     -1.40441737	     73.16984946	     46.76299280	      0.00000000	      0.00000000
     27.48771429	     -7.71453478	     -5.09103172	     -5.77118292	      0.79383257	      0.92281251	      0.45637997	     32.73482035	      1.11281070	    -10.81973326	     18.54474847	     18.54474847	      2.46983911	     -0.51717030	      5.14398011	      9.10698580	     -5.87551700	     -5.10774963	     20.40276043	     20.40276043	     19.84816706	    -12.53938635	      4.07508437	    -12.36389282	      7.85683571	     -0.24202648	     -3.65247117	    -12.53459238	    -21.70812490	     22.65601444	     47.81837749	      0.00000000	      0.00000000	     -1.56801783	    -15.84214902	     -1.10041958	     73.46972025	     46.76009121	      0.00000000	      0.00000000
     27.50085714	     -7.66264688	     -4.83471582	     -5.71718733	      0.79429092	      0.92132713	      0.45800812	     32.22679491	      0.91577545	    -11.02920181	     17.60122359	     17.60122359	      2.50211376	      0.69018290	      5.59130191	      8.50932157	     -5.64379748	     -5.14403801	     20.30188759	     20.30188759	     20.22201766	    -12.48419855	      3.81602450	    -12.13188980	      7.72220777	     -0.20734117	     -3.69206949	    -12.21466905	    -21.82458723	     22.68227980	     47.82030799	      0.00000000	      0.00000000	     -1.40234835	    -15.65685898	     -0.90347408	     73.68424311	     46.75912173	      0.00000000	      0.00000000
     27.51400000	     -7.50333894	     -4.68650157	     -5.61814877	      0.79510281	      0.92004610	      0.45970574	     31.61804340	      0.70942895	    -11.37125991	     17.33851224	     17.33851224	      2.69531233	      1.94204924	      5.71612820	      7.73010395	     -5.51827948	     -5.08819490	     20.13495955	     20.13495955	     20.57759622	    -12.37760462	      3.59413261	    -11.99151513	      7.71920104	     -0.06750256	     -3.68185953	    -11.98512608	    -21.98797891	     22.74015685	     47.82363127	      0.00000000	      0.00000000	     -1.28618501	    -15.40231415	     -0.67529019	     73.89296586	     46.75919613	      0.00000000	      0.00000000
     27.52714286	     -7.56554831	     -4.57162018	     -5.51086700	      0.79580986	      0.91843750	      0.46154002	     31.27517972	      0.62251325	    -11.13291137	     17.51088311	     17.51088311	      2.67404294	      2.16588498	      5.67571113	      7.31522912	     -5.46398656	     -4.95666396	     20.18844976	     20.18844976	     21.04942360	    -12.44541922	      3.40429882	    -11.63882109	      7.82007072	     -0.03567572	     -3.57130587	    -11.78503146	    -21.98360400	     22.78056931	     47.82041347	      0.00000000	      0.00000000	     -1.27710000	    -15.21348965	     -0.59527038	     73.93398510	     46.75581339	      0.00000000	      0.00000000
     27.54028571	     -7.53764783	     -4.47878689	     -5.37984183	      0.79679151	      0.91709597	      0.46346786	     30.76622243	      0.53623703	    -10.82837748	     17.93201864	     17.93201864	      2.77329270	      2.41476778	      5.49488679	      6.80578023	     -5.43975879	     -4.78308473	     20.28165779	     20.28165779	     21.44101496	    -12.47471190	      3.25150582	    -11.31585937	      7.94019634	      0.08597321	     -3.33341140	    -11.53042192	    -21.96559264	     22.85967226	     47.81503949	      0.00000000	      0.00000000	     -1.31321183	    -14.92562410	     -0.48755492	     73.96528886	     46.75022098	      0.00000000	      0.00000000
     27.55342857	     -7.19850157	     -4.20832919	     -5.24872936	      0.79798781	      0.91598421	      0.46540637	     30.36904501	      0.11788332	    -10.60148859	     19.41653445	     19.41653445	      3.11828514	      2.80725565	      4.43239293	      5.97246321	     -5.20834495	     -4.72195991	     20.40248677	     20.40248677	     21.77104465	    -12.45857790	      3.21384236	    -11.39931358	      7.82590856	      0.32251034	     -2.97141589	    -11.31622503	    -22.00457831	     23.00052120	     47.80835265	      0.00000000	      0.00000000	     -1.27661565	    -14.58939307	     -0.44133007	     74.00110747	     46.75642664	      0.00000000	      0.00000000
